:SAMPLES-PER-SECOND 30
:FULLY-SPECIFIED
:DEGREES
180
root  -50.15 34.9488 -26.9475 -168.126 37.8193 -176.474
RightUpLeg  -8.1643 -21.6604 5.00158
RightLeg  4.27451 -6.77134 -0.0676605
RightFoot  5.46833 0.049107 -0.458643
RightToes  -20.3699 -0.0812803 -0.176421
Spine  -2.03107 -0.879539 -2.93903
Spine1  -4.01815 -1.8533 -5.01257
HEad  -77.8359 -47.0307 19.4666
LeftShoulder1  -1.94126e-019 -3.10601e-018 -2.51263e-017
LeftArm  -21.8325 19.105 -65.9093
LeftForeArm  30.9224 -15.2676 -2.65366
LeftHand  -0.364282 0.473921 8.62502
RightShoulder  -4.96962e-017 0 -2.36833e-017
RightArm  -43.8306 -18.2035 60.8663
RightForeArm  48.9476 55.355 12.1406
RightHand  -0.148515 -1.27761 -4.04435
LeftUpLeg  -6.1846 12.267 8.27097
LeftLeg  13.0575 19.2409 3.11272
LeftFoot  6.09575 -0.114747 2.31636
LeftToes  -25.507 1.46665e-006 1.03344e-007
181
root  -49.8593 34.9484 -26.7275 -167.907 37.2986 -176.423
RightUpLeg  -8.27768 -22.7465 5.80828
RightLeg  4.09852 -6.23044 -0.0431946
RightFoot  5.14621 0.0426506 -0.375264
RightToes  -19.5518 -0.0789743 -0.171897
Spine  -2.01378 -0.955624 -2.94682
Spine1  -3.98413 -1.99337 -5.04782
HEad  -78.8894 -47.5074 21.1935
LeftShoulder1  -1.94126e-019 -3.10601e-018 -2.51263e-017
LeftArm  -20.8096 18.1291 -68.038
LeftForeArm  31.0188 -17.5964 -3.04923
LeftHand  -0.331285 0.137137 7.36916
RightShoulder  -4.96962e-017 0 -2.36833e-017
RightArm  -42.9959 -19.1839 62.4512
RightForeArm  48.65 53.8266 11.39
RightHand  -0.14139 -1.53311 -4.05939
LeftUpLeg  -7.7659 13.4538 9.04208
LeftLeg  15.5113 17.5674 3.61514
LeftFoot  6.48857 -0.118821 2.25754
LeftToes  -27.4059 1.46665e-006 1.03344e-007
182
root  -49.6161 34.9362 -26.527 -167.773 37.1909 -176.247
RightUpLeg  -8.47783 -23.0407 6.49373
RightLeg  4.40709 -5.98993 -0.0736912
RightFoot  4.70486 0.037283 -0.308736
RightToes  -18.8745 -0.0752739 -0.167712
Spine  -1.90548 -0.845888 -2.98169
Spine1  -3.77526 -1.75818 -5.14386
HEad  -79.8513 -47.873 22.6051
LeftShoulder1  -1.94126e-019 -3.10601e-018 -2.51263e-017
LeftArm  -19.1834 17.0887 -70.2573
LeftForeArm  30.4029 -20.641 -3.54081
LeftHand  -0.302131 -0.0613241 6.4945
RightShoulder  -4.96962e-017 0 -2.36833e-017
RightArm  -41.7195 -20.2201 63.9143
RightForeArm  48.5427 52.3092 10.6872
RightHand  -0.143368 -1.55462 -4.13982
LeftUpLeg  -8.64656 15.2608 9.76225
LeftLeg  16.9077 16.1294 3.7333
LeftFoot  6.82148 -0.12061 2.18504
LeftToes  -28.8459 1.46665e-006 1.03344e-007
183
root  -49.422 34.9212 -26.3615 -167.841 37.3545 -176.238
RightUpLeg  -8.75266 -22.8361 6.86402
RightLeg  5.09825 -6.02458 -0.146607
RightFoot  4.11742 0.0323199 -0.248998
RightToes  -18.4906 -0.0717449 -0.164577
Spine  -1.80842 -0.760608 -3.04999
Spine1  -3.58761 -1.57412 -5.30092
HEad  -79.7699 -47.7753 22.8268
LeftShoulder1  -1.94126e-019 -3.10601e-018 -2.51263e-017
LeftArm  -17.2929 16.3818 -72.3958
LeftForeArm  30.0554 -23.8899 -3.98073
LeftHand  -0.284844 -0.399942 5.79673
RightShoulder  -4.96962e-017 0 -2.36833e-017
RightArm  -39.8452 -21.0002 65.285
RightForeArm  48.9376 50.94 10.0643
RightHand  -0.139781 -1.38992 -3.88613
LeftUpLeg  -8.81413 16.8195 10.175
LeftLeg  16.8753 14.5626 3.37099
LeftFoot  6.84265 -0.109042 1.98532
LeftToes  -29.4301 1.46665e-006 1.03344e-007
184
root  -49.2799 34.914 -26.2221 -167.919 37.5218 -176.258
RightUpLeg  -8.98996 -22.2429 7.12642
RightLeg  5.67285 -6.47451 -0.222327
RightFoot  3.61521 0.0295552 -0.221413
RightToes  -17.7116 -0.0690727 -0.16303
Spine  -1.73405 -0.74236 -3.16064
Spine1  -3.44124 -1.52696 -5.53586
HEad  -78.9059 -47.5452 22.1488
LeftShoulder1  -1.94126e-019 -3.10601e-018 -2.51263e-017
LeftArm  -14.5985 15.9136 -74.0709
LeftForeArm  29.6396 -27.6014 -4.46673
LeftHand  -0.264617 -0.708599 5.14361
RightShoulder  -4.96962e-017 0 -2.36833e-017
RightArm  -37.5334 -21.5962 66.7146
RightForeArm  49.6349 49.5669 9.45879
RightHand  -0.137976 -1.11822 -3.62439
LeftUpLeg  -8.74768 17.237 10.3256
LeftLeg  15.8917 12.1727 2.61023
LeftFoot  6.22097 -0.0746261 1.53476
LeftToes  -28.7174 1.46665e-006 1.03344e-007
185
root  -49.1953 34.9104 -26.1251 -168.042 37.6044 -176.328
RightUpLeg  -9.05394 -21.8998 7.24013
RightLeg  5.92045 -6.75221 -0.260961
RightFoot  3.33208 0.0274257 -0.203365
RightToes  -17.3072 -0.0677031 -0.161717
Spine  -1.68268 -0.765396 -3.29625
Spine1  -3.33819 -1.56458 -5.8161
HEad  -77.5435 -47.0888 20.5543
LeftShoulder1  -1.94126e-019 -3.10601e-018 -2.51263e-017
LeftArm  -12.0697 15.6307 -75.3178
LeftForeArm  29.1648 -31.4038 -5.23009
LeftHand  -0.24972 -1.08165 4.61062
RightShoulder  -4.96962e-017 0 -2.36833e-017
RightArm  -35.925 -22.0412 68.2069
RightForeArm  51.0666 48.2155 8.85133
RightHand  -0.123053 -0.174985 -2.73753
LeftUpLeg  -8.61094 15.9451 10.1632
LeftLeg  14.7071 11.0719 2.14078
LeftFoot  5.54992 -0.0537233 1.2699
LeftToes  -27.4988 1.46665e-006 1.03344e-007
186
root  -49.1558 34.8961 -26.0648 -168.046 37.6536 -176.231
RightUpLeg  -8.83443 -21.9141 7.39884
RightLeg  5.57136 -6.64139 -0.216295
RightFoot  3.32464 0.0260525 -0.196311
RightToes  -17.2049 -0.0669334 -0.160721
Spine  -1.66271 -0.751692 -3.34292
Spine1  -3.30073 -1.52572 -5.92027
HEad  -76.0962 -47.0511 18.4595
LeftShoulder1  -1.94126e-019 -3.10601e-018 -2.51263e-017
LeftArm  -10.31 15.4529 -76.4795
LeftForeArm  29.6015 -34.927 -6.08755
LeftHand  -0.236391 -1.69614 4.04097
RightShoulder  -4.96962e-017 0 -2.36833e-017
RightArm  -34.3705 -22.6804 69.3398
RightForeArm  51.7342 47.1985 8.44176
RightHand  -0.104115 0.135996 -2.21643
LeftUpLeg  -8.50207 13.9914 9.9833
LeftLeg  13.905 12.0141 2.14791
LeftFoot  4.68647 -0.0415955 1.17804
LeftToes  -25.398 1.46665e-006 1.03344e-007
187
root  -49.1579 34.8777 -26.0337 -167.923 37.7833 -176.006
RightUpLeg  -8.62176 -22.2017 7.61019
RightLeg  5.07933 -6.21419 -0.149164
RightFoot  3.45489 0.0246138 -0.188229
RightToes  -17.2696 -0.066712 -0.160129
Spine  -1.67065 -0.662556 -3.31998
Spine1  -3.32528 -1.33365 -5.89055
HEad  -74.8521 -46.9529 16.2864
LeftShoulder1  -1.94126e-019 -3.10601e-018 -2.51263e-017
LeftArm  -8.69334 15.3341 -77.4786
LeftForeArm  30.2659 -38.0029 -6.88462
LeftHand  -0.227482 -2.01341 3.75248
RightShoulder  -4.96962e-017 0 -2.36833e-017
RightArm  -32.5562 -23.5965 70.0472
RightForeArm  51.4559 46.6033 8.24775
RightHand  -0.0986122 0.0517118 -2.12335
LeftUpLeg  -8.26624 13.1221 9.88663
LeftLeg  13.1883 13.1252 2.17587
LeftFoot  3.82777 -0.030347 1.0697
LeftToes  -23.5068 1.46665e-006 1.03344e-007
188
root  -49.21 34.871 -26.0151 -167.733 38.0543 -175.748
RightUpLeg  -8.54599 -22.0974 7.75672
RightLeg  4.71632 -5.98128 -0.105778
RightFoot  3.62428 0.0242293 -0.194845
RightToes  -17.081 -0.0669871 -0.160026
Spine  -1.6681 -0.561326 -3.29674
Spine1  -3.32849 -1.11928 -5.85828
HEad  -74.1716 -46.6271 14.9259
LeftShoulder1  -1.94126e-019 -3.10601e-018 -2.51263e-017
LeftArm  -7.59563 15.2039 -78.1715
LeftForeArm  31.1207 -40.3467 -7.5189
LeftHand  -0.227873 -2.31424 3.6347
RightShoulder  -4.96962e-017 0 -2.36833e-017
RightArm  -31.8028 -24.1019 70.8135
RightForeArm  51.2692 45.8134 7.98755
RightHand  -0.079561 0.388415 -1.64987
LeftUpLeg  -7.79715 13.1922 9.96301
LeftLeg  12.2192 12.8066 1.90412
LeftFoot  3.49623 -0.0221217 0.968439
LeftToes  -23.1707 1.46665e-006 1.03344e-007
189
root  -49.337 34.865 -26.012 -167.636 38.1364 -175.587
RightUpLeg  -8.62466 -22.1371 7.75195
RightLeg  4.62303 -5.7917 -0.0930223
RightFoot  3.80055 0.0238753 -0.201258
RightToes  -17.4505 -0.0677071 -0.160497
Spine  -1.613 -0.570542 -3.27199
Spine1  -3.22216 -1.12823 -5.81826
HEad  -74.395 -46.1594 14.6221
LeftShoulder1  -1.94126e-019 -3.10601e-018 -2.51263e-017
LeftArm  -6.95341 15.1534 -78.6349
LeftForeArm  31.3259 -41.8621 -7.97547
LeftHand  -0.245545 -2.21734 3.94397
RightShoulder  -4.96962e-017 0 -2.36833e-017
RightArm  -31.7027 -24.2909 71.6002
RightForeArm  51.1304 44.7977 7.65902
RightHand  -0.0847147 0.371532 -1.75734
LeftUpLeg  -7.53309 13.8044 9.97359
LeftLeg  11.4986 12.2638 1.66868
LeftFoot  3.67552 -0.0211295 0.970652
LeftToes  -24.8069 1.46665e-006 1.03344e-007
190
root  -49.5339 34.8589 -26.037 -167.657 38.1397 -175.558
RightUpLeg  -8.88675 -22.2413 7.54022
RightLeg  4.90733 -5.61111 -0.117898
RightFoot  3.8123 0.0225145 -0.192366
RightToes  -17.8557 -0.0698305 -0.161627
Spine  -1.51965 -0.625631 -3.23413
Spine1  -3.03795 -1.23281 -5.74889
HEad  -75.0125 -45.7004 14.8339
LeftShoulder1  -1.94126e-019 -3.10601e-018 -2.51263e-017
LeftArm  -6.32223 15.073 -78.8428
LeftForeArm  30.869 -42.1973 -8.11022
LeftHand  -0.268664 -2.13161 4.34009
RightShoulder  -4.96962e-017 0 -2.36833e-017
RightArm  -31.6941 -24.296 72.2553
RightForeArm  50.964 43.5425 7.26938
RightHand  -0.122396 0.0863328 -2.62101
LeftUpLeg  -7.5569 14.5735 9.76754
LeftLeg  11.2512 11.4546 1.51011
LeftFoot  3.72216 -0.017474 0.923479
LeftToes  -25.5566 1.46665e-006 1.03344e-007
191
root  -49.7777 34.8513 -26.0768 -167.594 38.2783 -175.495
RightUpLeg  -9.46385 -21.5286 7.27965
RightLeg  5.64762 -6.15839 -0.208795
RightFoot  3.78074 0.0240822 -0.22414
RightToes  -18.3594 -0.07263 -0.163502
Spine  -1.43692 -0.631565 -3.14817
Spine1  -2.87818 -1.23978 -5.5826
HEad  -75.7485 -45.2807 15.2269
LeftShoulder1  -1.94126e-019 -3.10601e-018 -2.51263e-017
LeftArm  -5.89361 14.9267 -78.9928
LeftForeArm  30.4732 -41.2563 -7.8354
LeftHand  -0.283051 -2.04472 4.60936
RightShoulder  -4.96962e-017 0 -2.36833e-017
RightArm  -31.7633 -24.2265 72.7943
RightForeArm  50.7311 41.9924 6.81172
RightHand  -0.165781 -0.162627 -3.68771
LeftUpLeg  -7.74501 14.4231 9.4291
LeftLeg  11.2639 11.7731 1.55415
LeftFoot  3.8268 -0.0199498 0.964576
LeftToes  -26.725 1.46665e-006 1.03344e-007
